#!OML:ASF E:\Steps\Project 1\Capture day 1\Session 2\Subject.ASF
:FULLY-SPECIFIED
:DEGREES
299
root 13.0214 14.1011 10.8469 20.1031 -160.938 358.902
lowerback -25.3657 -6.44624 -6.50761
upperback -3.39061 -7.39119 0.169856
thorax 11.0731 -4.02107 1.26505
lowerneck 0.275491 0.80196 -5.33182
upperneck 8.66307 0.356042 6.6183
head 2.73029 0.0460876 3.1315
rclavicle -8.96705e-015 -5.56597e-015
rhumerus -33.7418 -1.23336 -87.6286
rradius 56.958
rwrist -12.6137
rhand -8.40173 -48.2886
rfingers 7.12502
rthumb 17.5223 -77.5189
lclavicle -8.96705e-015 -5.56597e-015
lhumerus -18.0733 -28.2985 49.2934
lradius 41.3652
lwrist -0.9828
lhand -22.6857 -19.2785
lfingers 7.12502
lthumb 3.74662 10.6683
rfemur -50.9565 0.585623 29.9913
rtibia 65.4518
rfoot -49.3824 -20.8258
rtoes -1.46556
lfemur -43.3031 -4.4496 -19.4244
ltibia 78.2954
lfoot -24.0038 8.5895
ltoes -56.5532
300
root 13.0365 14.0921 10.9274 20.9418 -158.973 358.693
lowerback -24.9867 -6.36072 -6.34748
upperback -3.31633 -7.30165 -0.00480343
thorax 10.9094 -3.9592 1.04895
lowerneck 0.372191 0.829463 -5.32817
upperneck 8.62326 0.398408 6.60492
head 2.69591 0.0684557 3.12506
rclavicle 1.11133e-013 3.4191e-014
rhumerus -33.1074 -1.75481 -87.1191
rradius 57.0795
rwrist -12.8765
rhand -8.22937 -47.9098
rfingers 7.12502
rthumb 17.6881 -77.1253
lclavicle 1.11133e-013 3.4191e-014
lhumerus -17.5789 -27.004 48.6489
lradius 39.3429
lwrist -0.864512
lhand -23.4341 -18.6431
lfingers 7.12502
lthumb 3.02386 11.3152
rfemur -52.621 0.211519 29.828
rtibia 66.2129
rfoot -48.1429 -22.3266
rtoes -6.0007
lfemur -42.5252 -4.78876 -19.8669
ltibia 76.9273
lfoot -26.7485 11.8379
ltoes -58.2498
301
root 13.0562 14.094 10.9986 21.6521 -156.974 358.288
lowerback -24.4513 -6.31249 -6.4563
upperback -3.15133 -7.18264 -0.192136
thorax 10.7948 -3.89067 0.98712
lowerneck 0.461996 0.805693 -5.21385
upperneck 8.59518 0.368087 6.57974
head 2.67112 0.0573788 3.09253
rclavicle 2.28602e-015 4.77083e-015
rhumerus -32.7112 -2.30819 -86.5346
rradius 57.3401
rwrist -12.7099
rhand -8.4263 -48.4109
rfingers 7.12502
rthumb 17.4986 -77.6433
lclavicle 2.28602e-015 4.77083e-015
lhumerus -16.9683 -25.4341 47.9783
lradius 37.3614
lwrist -0.0888333
lhand -23.0553 -18.108
lfingers 7.12502
lthumb 3.38965 11.8447
rfemur -53.7006 -0.260284 29.45
rtibia 66.3992
rfoot -47.0292 -23.6007
rtoes -9.12393
lfemur -41.4463 -5.2245 -20.3401
ltibia 75.1283
lfoot -30.2628 13.6374
ltoes -58.0333
302
root 13.0797 14.0967 11.0748 22.5174 -155.208 357.818
lowerback -23.9718 -6.27877 -6.63497
upperback -2.97309 -7.07127 -0.288593
thorax 10.7448 -3.83113 1.05455
lowerneck -0.347665 0.73257 -5.43159
upperneck 9.11115 0.258594 6.94338
head 3.00963 0.0196735 3.27968
rclavicle -5.89894e-014 -3.57812e-014
rhumerus -32.1943 -2.53142 -85.8702
rradius 57.5039
rwrist -12.4141
rhand -8.5725 -49.5912
rfingers 7.12502
rthumb 17.3579 -78.8361
lclavicle -5.89894e-014 -3.57812e-014
lhumerus -16.3895 -23.5014 47.4159
lradius 35.5161
lwrist 0.491532
lhand -22.6527 -17.2623
lfingers 7.12502
lthumb 3.77851 12.684
rfemur -54.9081 -0.613901 28.9714
rtibia 66.5634
rfoot -45.8774 -24.5354
rtoes -11.5307
lfemur -40.4433 -5.53959 -20.7735
ltibia 72.6533
lfoot -33.9567 14.0894
ltoes -56.8883
303
root 13.1048 14.0995 11.1541 23.5863 -153.753 357.356
lowerback -23.6835 -5.96928 -6.81174
upperback -2.99959 -6.61001 -0.640673
thorax 10.4965 -3.61494 0.953624
lowerneck -0.00875822 0.696526 -5.06775
upperneck 9.072 0.186107 6.87383
head 2.93449 -0.0137742 3.17883
rclavicle -6.31638e-014 -7.79236e-014
rhumerus -32.2465 -3.23591 -85.3902
rradius 57.5041
rwrist -11.9163
rhand -8.4681 -49.2974
rfingers 7.12502
rthumb 17.4584 -78.5334
lclavicle -6.31638e-014 -7.79236e-014
lhumerus -15.6817 -22.1498 46.6756
lradius 33.7126
lwrist 0.671343
lhand -22.1398 -17.1404
lfingers 7.12502
lthumb 4.27374 12.7964
rfemur -56.5325 -0.968163 28.5589
rtibia 66.9851
rfoot -45.9087 -25.1087
rtoes -11.6857
lfemur -39.7325 -5.79046 -21.0688
ltibia 69.6164
lfoot -37.9429 13.2885
ltoes -54.5172
304
root 13.1319 14.1059 11.2266 24.6382 -152.344 356.857
lowerback -23.3135 -5.94064 -6.94166
upperback -3.00588 -6.55217 -0.706499
thorax 10.2941 -3.58651 1.00839
lowerneck -0.0495089 0.789053 -5.31022
upperneck 9.10162 0.330391 6.85422
head 2.94364 0.0542471 3.22256
rclavicle -4.14466e-014 -2.22639e-014
rhumerus -31.996 -2.71743 -84.9677
rradius 57.2412
rwrist -11.2272
rhand -8.63568 -49.4979
rfingers 7.12502
rthumb 17.2971 -78.7482
lclavicle -4.14466e-014 -2.22639e-014
lhumerus -15.7122 -19.8601 46.2877
lradius 31.94
lwrist -0.0355332
lhand -22.1162 -17.3053
lfingers 7.12502
lthumb 4.29656 12.6311
rfemur -57.5474 -1.27446 28.1694
rtibia 66.5819
rfoot -45.6121 -25.6477
rtoes -11.2913
lfemur -39.1026 -6.22096 -21.1942
ltibia 66.2446
lfoot -41.9627 11.3273
ltoes -49.5747
